<svg width="320" height="320" viewBox="0 0 320 320" fill="none" xmlns="http://www.w3.org/2000/svg">
  <rect width="320" height="320" rx="160" fill="#F8FAF4"/>
  <path d="M160 18C81.6 18 18 81.6 18 160s63.6 142 142 142 142-63.6 142-142S238.4 18 160 18Zm0 268C90.4 286 34 229.6 34 160S90.4 34 160 34s126 56.4 126 126-56.4 126-126 126Z" fill="#0B1110"/>
  <path d="m160 84 52 38-20 62h-64l-20-62 52-38Z" fill="#0B1110"/>
  <path d="m58 128 47-24 19 20-16 52-42 7-25-29 17-26Z" fill="#0B1110"/>
  <path d="m262 128-47-24-19 20 16 52 42 7 25-29-17-26Z" fill="#0B1110"/>
  <path d="m94 244 11-48 23-7 43 31 1 45-33 20-45-41Z" fill="#0B1110"/>
  <path d="m226 244-11-48-23-7-43 31-1 45 33 20 45-41Z" fill="#0B1110"/>
  <path d="M124 124 82 99M196 124l42-25M128 184l-24 26M192 184l24 26M128 184h64" stroke="#65B741" stroke-width="10" stroke-linecap="round"/>
</svg>
