<svg width="64" height="64" viewBox="0 0 64 64" fill="none" xmlns="http://www.w3.org/2000/svg" role="img" aria-label="World Cup 2026 trophy">
  <defs>
    <linearGradient id="bg" x1="0" y1="0" x2="0" y2="64" gradientUnits="userSpaceOnUse">
      <stop offset="0" stop-color="#0d1b2a"/>
      <stop offset="1" stop-color="#1b263b"/>
    </linearGradient>
    <linearGradient id="gold" x1="18" y1="12" x2="46" y2="52" gradientUnits="userSpaceOnUse">
      <stop offset="0" stop-color="#fff3b0"/>
      <stop offset="0.45" stop-color="#f4c430"/>
      <stop offset="1" stop-color="#b8860b"/>
    </linearGradient>
  </defs>

  <rect width="64" height="64" rx="14" fill="url(#bg)"/>

  <!-- Trophy from Heroicons (MIT License, https://github.com/tailwindlabs/heroicons) -->
  <g transform="translate(12 12) scale(1.6667)" fill="url(#gold)">
    <path fill-rule="evenodd" d="M5.166 2.621v.858c-1.035.148-2.059.33-3.071.543a.75.75 0 0 0-.584.859 6.753 6.753 0 0 0 6.138 5.6 6.73 6.73 0 0 0 2.743 1.346A6.707 6.707 0 0 1 9.279 15H8.54c-1.036 0-1.875.84-1.875 1.875V19.5h-.75a2.25 2.25 0 0 0-2.25 2.25c0 .414.336.75.75.75h15a.75.75 0 0 0 .75-.75 2.25 2.25 0 0 0-2.25-2.25h-.75v-2.625c0-1.036-.84-1.875-1.875-1.875h-.739a6.706 6.706 0 0 1-1.112-3.173 6.73 6.73 0 0 0 2.743-1.347 6.753 6.753 0 0 0 6.139-5.6.75.75 0 0 0-.585-.858 47.077 47.077 0 0 0-3.07-.543V2.62a.75.75 0 0 0-.658-.744 49.22 49.22 0 0 0-6.093-.377c-2.063 0-4.096.128-6.093.377a.75.75 0 0 0-.657.744Zm0 2.629c0 1.196.312 2.32.857 3.294A5.266 5.266 0 0 1 3.16 5.337a45.6 45.6 0 0 1 2.006-.343v.256Zm13.5 0v-.256c.674.1 1.343.214 2.006.343a5.265 5.265 0 0 1-2.863 3.207 6.72 6.72 0 0 0 .857-3.294Z" clip-rule="evenodd"/>
  </g>
</svg>
